{
    "asset" : {
        "generator" : "Khronos glTF Blender I/O v1.1.45",
        "version" : "2.0"
    },
    "scene" : 0,
    "scenes" : [
        {
            "name" : "Scene",
            "nodes" : [
                0,
                1,
                2
            ]
        }
    ],
    "nodes" : [
        {
            "mesh" : 0,
            "name" : "model",
            "rotation" : [
                1,
                0,
                0,
                -1.3435885648505064e-07
            ],
            "scale" : [
                9,
                9,
                9
            ],
            "translation" : [
                0,
                0.409961998462677,
                -20.33316993713379
            ]
        },
        {
            "name" : "Lamp",
            "rotation" : [
                0.5232754349708557,
                0.3420339822769165,
                -0.7269423604011536,
                0.2841661274433136
            ],
            "translation" : [
                0,
                1.600000262260437,
                0
            ]
        },
        {
            "name" : "Camera",
            "rotation" : [
                0.8937963247299194,
                0.09062855690717697,
                -0.3857799172401428,
                0.20997287333011627
            ],
            "translation" : [
                7.481131553649902,
                5.343664646148682,
                6.507641792297363
            ]
        }
    ],
    "materials" : [
        {
            "emissiveFactor" : [
                0,
                0,
                0
            ],
            "name" : "mat4",
            "pbrMetallicRoughness" : {
                "baseColorFactor" : [
                    0,
                    0.7400000095367432,
                    0.8299999833106995,
                    1
                ],
                "metallicFactor" : 0,
                "roughnessFactor" : 1
            }
        },
        {
            "emissiveFactor" : [
                0,
                0,
                0
            ],
            "name" : "mat20",
            "pbrMetallicRoughness" : {
                "baseColorFactor" : [
                    0.4699999988079071,
                    0.33000001311302185,
                    0.2800000011920929,
                    1
                ],
                "metallicFactor" : 0,
                "roughnessFactor" : 1
            }
        },
        {
            "emissiveFactor" : [
                0,
                0,
                0
            ],
            "name" : "mat18",
            "pbrMetallicRoughness" : {
                "baseColorFactor" : [
                    1,
                    0.800000011920929,
                    0.5299999713897705,
                    1
                ],
                "metallicFactor" : 0,
                "roughnessFactor" : 1
            }
        },
        {
            "emissiveFactor" : [
                0,
                0,
                0
            ],
            "name" : "Material.001",
            "pbrMetallicRoughness" : {
                "baseColorFactor" : [
                    1,
                    0.6000000238418579,
                    0,
                    1
                ],
                "metallicFactor" : 0,
                "roughnessFactor" : 1
            }
        },
        {
            "emissiveFactor" : [
                0,
                0,
                0
            ],
            "name" : "mat15",
            "pbrMetallicRoughness" : {
                "baseColorFactor" : [
                    0.8100000023841858,
                    0.8500000238418579,
                    0.8600000143051147,
                    1
                ],
                "metallicFactor" : 0,
                "roughnessFactor" : 1
            }
        },
        {
            "emissiveFactor" : [
                0,
                0,
                0
            ],
            "name" : "mat8",
            "pbrMetallicRoughness" : {
                "baseColorFactor" : [
                    0.9599999785423279,
                    0.25999999046325684,
                    0.20999999344348907,
                    1
                ],
                "metallicFactor" : 0,
                "roughnessFactor" : 1
            }
        },
        {
            "emissiveFactor" : [
                0,
                0,
                0
            ],
            "name" : "mat9",
            "pbrMetallicRoughness" : {
                "baseColorFactor" : [
                    0.550000011920929,
                    0.7599999904632568,
                    0.28999999165534973,
                    1
                ],
                "metallicFactor" : 0,
                "roughnessFactor" : 1
            }
        },
        {
            "emissiveFactor" : [
                0,
                0,
                0
            ],
            "name" : "mat3",
            "pbrMetallicRoughness" : {
                "baseColorFactor" : [
                    0.5,
                    0.8700000047683716,
                    0.9200000166893005,
                    1
                ],
                "metallicFactor" : 0,
                "roughnessFactor" : 1
            }
        },
        {
            "emissiveFactor" : [
                0,
                0,
                0
            ],
            "name" : "mat19",
            "pbrMetallicRoughness" : {
                "baseColorFactor" : [
                    0.8700000047683716,
                    0.6000000238418579,
                    0.27000001072883606,
                    1
                ],
                "metallicFactor" : 0,
                "roughnessFactor" : 1
            }
        },
        {
            "emissiveFactor" : [
                0,
                0,
                0
            ],
            "name" : "mat5",
            "pbrMetallicRoughness" : {
                "baseColorFactor" : [
                    0.009999999776482582,
                    0.6100000143051147,
                    0.8999999761581421,
                    1
                ],
                "metallicFactor" : 0,
                "roughnessFactor" : 1
            }
        },
        {
            "emissiveFactor" : [
                0,
                0,
                0
            ],
            "name" : "mat14",
            "pbrMetallicRoughness" : {
                "baseColorFactor" : [
                    1,
                    0.3400000035762787,
                    0.12999999523162842,
                    1
                ],
                "metallicFactor" : 0,
                "roughnessFactor" : 1
            }
        },
        {
            "emissiveFactor" : [
                0,
                0,
                0
            ],
            "name" : "mat22",
            "pbrMetallicRoughness" : {
                "baseColorFactor" : [
                    0.6200000047683716,
                    0.6200000047683716,
                    0.6200000047683716,
                    1
                ],
                "metallicFactor" : 0,
                "roughnessFactor" : 1
            }
        }
    ],
    "meshes" : [
        {
            "name" : "model",
            "primitives" : [
                {
                    "attributes" : {
                        "POSITION" : 0,
                        "NORMAL" : 1
                    },
                    "indices" : 2,
                    "material" : 0
                },
                {
                    "attributes" : {
                        "POSITION" : 3,
                        "NORMAL" : 4
                    },
                    "indices" : 5,
                    "material" : 1
                },
                {
                    "attributes" : {
                        "POSITION" : 6,
                        "NORMAL" : 7
                    },
                    "indices" : 8,
                    "material" : 2
                },
                {
                    "attributes" : {
                        "POSITION" : 9,
                        "NORMAL" : 10
                    },
                    "indices" : 11,
                    "material" : 3
                },
                {
                    "attributes" : {
                        "POSITION" : 12,
                        "NORMAL" : 13
                    },
                    "indices" : 14,
                    "material" : 4
                },
                {
                    "attributes" : {
                        "POSITION" : 15,
                        "NORMAL" : 16
                    },
                    "indices" : 17,
                    "material" : 5
                },
                {
                    "attributes" : {
                        "POSITION" : 18,
                        "NORMAL" : 19
                    },
                    "indices" : 20,
                    "material" : 6
                },
                {
                    "attributes" : {
                        "POSITION" : 21,
                        "NORMAL" : 22
                    },
                    "indices" : 23,
                    "material" : 7
                },
                {
                    "attributes" : {
                        "POSITION" : 24,
                        "NORMAL" : 25
                    },
                    "indices" : 26,
                    "material" : 8
                },
                {
                    "attributes" : {
                        "POSITION" : 27,
                        "NORMAL" : 28
                    },
                    "indices" : 29,
                    "material" : 9
                },
                {
                    "attributes" : {
                        "POSITION" : 30,
                        "NORMAL" : 31
                    },
                    "indices" : 32,
                    "material" : 10
                },
                {
                    "attributes" : {
                        "POSITION" : 33,
                        "NORMAL" : 34
                    },
                    "indices" : 35,
                    "material" : 11
                }
            ]
        }
    ],
    "accessors" : [
        {
            "bufferView" : 0,
            "componentType" : 5126,
            "count" : 512,
            "max" : [
                0.44615408778190613,
                0.42950019240379333,
                -1.6012190580368042
            ],
            "min" : [
                0.10597120225429535,
                0.08673263341188431,
                -1.940953016281128
            ],
            "type" : "VEC3"
        },
        {
            "bufferView" : 1,
            "componentType" : 5126,
            "count" : 512,
            "type" : "VEC3"
        },
        {
            "bufferView" : 2,
            "componentType" : 5123,
            "count" : 564,
            "type" : "SCALAR"
        },
        {
            "bufferView" : 3,
            "componentType" : 5126,
            "count" : 1532,
            "max" : [
                1.1853059530258179,
                0.6656761169433594,
                -2.8783140182495117
            ],
            "min" : [
                1.0351649522781372,
                0.5012935996055603,
                -3.039541006088257
            ],
            "type" : "VEC3"
        },
        {
            "bufferView" : 4,
            "componentType" : 5126,
            "count" : 1532,
            "type" : "VEC3"
        },
        {
            "bufferView" : 5,
            "componentType" : 5123,
            "count" : 1590,
            "type" : "SCALAR"
        },
        {
            "bufferView" : 6,
            "componentType" : 5126,
            "count" : 665,
            "max" : [
                -0.9012178182601929,
                0.140905499458313,
                2.6256539821624756
            ],
            "min" : [
                -2.2564659118652344,
                -0.9317951798439026,
                1.1964370012283325
            ],
            "type" : "VEC3"
        },
        {
            "bufferView" : 7,
            "componentType" : 5126,
            "count" : 665,
            "type" : "VEC3"
        },
        {
            "bufferView" : 8,
            "componentType" : 5123,
            "count" : 939,
            "type" : "SCALAR"
        },
        {
            "bufferView" : 9,
            "componentType" : 5126,
            "count" : 2502,
            "max" : [
                -0.43875840306282043,
                0.4338366985321045,
                -2.463747024536133
            ],
            "min" : [
                -0.712088406085968,
                0.15621979534626007,
                -2.718453884124756
            ],
            "type" : "VEC3"
        },
        {
            "bufferView" : 10,
            "componentType" : 5126,
            "count" : 2502,
            "type" : "VEC3"
        },
        {
            "bufferView" : 11,
            "componentType" : 5123,
            "count" : 2592,
            "type" : "SCALAR"
        },
        {
            "bufferView" : 12,
            "componentType" : 5126,
            "count" : 20520,
            "max" : [
                2.9389209747314453,
                0.528379499912262,
                -0.84128737449646
            ],
            "min" : [
                -2.823780059814453,
                0.0047838687896728516,
                -1.9050840139389038
            ],
            "type" : "VEC3"
        },
        {
            "bufferView" : 13,
            "componentType" : 5126,
            "count" : 20520,
            "type" : "VEC3"
        },
        {
            "bufferView" : 14,
            "componentType" : 5123,
            "count" : 21804,
            "type" : "SCALAR"
        },
        {
            "bufferView" : 15,
            "componentType" : 5126,
            "count" : 1564,
            "max" : [
                0.32824280858039856,
                0.2715716063976288,
                -0.46281081438064575
            ],
            "min" : [
                0.06835991144180298,
                0.004709839820861816,
                -0.721164882183075
            ],
            "type" : "VEC3"
        },
        {
            "bufferView" : 16,
            "componentType" : 5126,
            "count" : 1564,
            "type" : "VEC3"
        },
        {
            "bufferView" : 17,
            "componentType" : 5123,
            "count" : 1620,
            "type" : "SCALAR"
        },
        {
            "bufferView" : 18,
            "componentType" : 5126,
            "count" : 2646,
            "max" : [
                0.45532891154289246,
                0.4140600860118866,
                -1.5877360105514526
            ],
            "min" : [
                0.10332509875297546,
                0.1079426035284996,
                -1.9228639602661133
            ],
            "type" : "VEC3"
        },
        {
            "bufferView" : 19,
            "componentType" : 5126,
            "count" : 2646,
            "type" : "VEC3"
        },
        {
            "bufferView" : 20,
            "componentType" : 5123,
            "count" : 2724,
            "type" : "SCALAR"
        },
        {
            "bufferView" : 21,
            "componentType" : 5126,
            "count" : 1648,
            "max" : [
                1.3396810293197632,
                0.17905570566654205,
                3.2213261127471924
            ],
            "min" : [
                0.5708215236663818,
                -0.5335745215415955,
                2.7127060890197754
            ],
            "type" : "VEC3"
        },
        {
            "bufferView" : 22,
            "componentType" : 5126,
            "count" : 1648,
            "type" : "VEC3"
        },
        {
            "bufferView" : 23,
            "componentType" : 5123,
            "count" : 2256,
            "type" : "SCALAR"
        },
        {
            "bufferView" : 24,
            "componentType" : 5126,
            "count" : 2863,
            "max" : [
                1.1864149570465088,
                0.6581798791885376,
                2.774049997329712
            ],
            "min" : [
                -2.4213619232177734,
                -1.0472890138626099,
                -3.040400981903076
            ],
            "type" : "VEC3"
        },
        {
            "bufferView" : 25,
            "componentType" : 5126,
            "count" : 2863,
            "type" : "VEC3"
        },
        {
            "bufferView" : 26,
            "componentType" : 5123,
            "count" : 3711,
            "type" : "SCALAR"
        },
        {
            "bufferView" : 27,
            "componentType" : 5126,
            "count" : 520,
            "max" : [
                -0.2057037055492401,
                -0.3072079122066498,
                4.0221028327941895
            ],
            "min" : [
                -0.7073538899421692,
                -0.8113275766372681,
                3.507354974746704
            ],
            "type" : "VEC3"
        },
        {
            "bufferView" : 28,
            "componentType" : 5126,
            "count" : 520,
            "type" : "VEC3"
        },
        {
            "bufferView" : 29,
            "componentType" : 5123,
            "count" : 564,
            "type" : "SCALAR"
        },
        {
            "bufferView" : 30,
            "componentType" : 5126,
            "count" : 1456,
            "max" : [
                0.3285767138004303,
                0.27461400628089905,
                -0.4639194905757904
            ],
            "min" : [
                0.05921715125441551,
                0.008107662200927734,
                -0.7421579957008362
            ],
            "type" : "VEC3"
        },
        {
            "bufferView" : 31,
            "componentType" : 5126,
            "count" : 1456,
            "type" : "VEC3"
        },
        {
            "bufferView" : 32,
            "componentType" : 5123,
            "count" : 1536,
            "type" : "SCALAR"
        },
        {
            "bufferView" : 33,
            "componentType" : 5126,
            "count" : 2044,
            "max" : [
                0.4203501045703888,
                -0.37153148651123047,
                4.542846202850342
            ],
            "min" : [
                0.315286785364151,
                -0.46941450238227844,
                4.446211814880371
            ],
            "type" : "VEC3"
        },
        {
            "bufferView" : 34,
            "componentType" : 5126,
            "count" : 2044,
            "type" : "VEC3"
        },
        {
            "bufferView" : 35,
            "componentType" : 5123,
            "count" : 2154,
            "type" : "SCALAR"
        }
    ],
    "bufferViews" : [
        {
            "buffer" : 0,
            "byteLength" : 6144,
            "byteOffset" : 0
        },
        {
            "buffer" : 0,
            "byteLength" : 6144,
            "byteOffset" : 6144
        },
        {
            "buffer" : 0,
            "byteLength" : 1128,
            "byteOffset" : 12288
        },
        {
            "buffer" : 0,
            "byteLength" : 18384,
            "byteOffset" : 13416
        },
        {
            "buffer" : 0,
            "byteLength" : 18384,
            "byteOffset" : 31800
        },
        {
            "buffer" : 0,
            "byteLength" : 3180,
            "byteOffset" : 50184
        },
        {
            "buffer" : 0,
            "byteLength" : 7980,
            "byteOffset" : 53364
        },
        {
            "buffer" : 0,
            "byteLength" : 7980,
            "byteOffset" : 61344
        },
        {
            "buffer" : 0,
            "byteLength" : 1878,
            "byteOffset" : 69324
        },
        {
            "buffer" : 0,
            "byteLength" : 30024,
            "byteOffset" : 71204
        },
        {
            "buffer" : 0,
            "byteLength" : 30024,
            "byteOffset" : 101228
        },
        {
            "buffer" : 0,
            "byteLength" : 5184,
            "byteOffset" : 131252
        },
        {
            "buffer" : 0,
            "byteLength" : 246240,
            "byteOffset" : 136436
        },
        {
            "buffer" : 0,
            "byteLength" : 246240,
            "byteOffset" : 382676
        },
        {
            "buffer" : 0,
            "byteLength" : 43608,
            "byteOffset" : 628916
        },
        {
            "buffer" : 0,
            "byteLength" : 18768,
            "byteOffset" : 672524
        },
        {
            "buffer" : 0,
            "byteLength" : 18768,
            "byteOffset" : 691292
        },
        {
            "buffer" : 0,
            "byteLength" : 3240,
            "byteOffset" : 710060
        },
        {
            "buffer" : 0,
            "byteLength" : 31752,
            "byteOffset" : 713300
        },
        {
            "buffer" : 0,
            "byteLength" : 31752,
            "byteOffset" : 745052
        },
        {
            "buffer" : 0,
            "byteLength" : 5448,
            "byteOffset" : 776804
        },
        {
            "buffer" : 0,
            "byteLength" : 19776,
            "byteOffset" : 782252
        },
        {
            "buffer" : 0,
            "byteLength" : 19776,
            "byteOffset" : 802028
        },
        {
            "buffer" : 0,
            "byteLength" : 4512,
            "byteOffset" : 821804
        },
        {
            "buffer" : 0,
            "byteLength" : 34356,
            "byteOffset" : 826316
        },
        {
            "buffer" : 0,
            "byteLength" : 34356,
            "byteOffset" : 860672
        },
        {
            "buffer" : 0,
            "byteLength" : 7422,
            "byteOffset" : 895028
        },
        {
            "buffer" : 0,
            "byteLength" : 6240,
            "byteOffset" : 902452
        },
        {
            "buffer" : 0,
            "byteLength" : 6240,
            "byteOffset" : 908692
        },
        {
            "buffer" : 0,
            "byteLength" : 1128,
            "byteOffset" : 914932
        },
        {
            "buffer" : 0,
            "byteLength" : 17472,
            "byteOffset" : 916060
        },
        {
            "buffer" : 0,
            "byteLength" : 17472,
            "byteOffset" : 933532
        },
        {
            "buffer" : 0,
            "byteLength" : 3072,
            "byteOffset" : 951004
        },
        {
            "buffer" : 0,
            "byteLength" : 24528,
            "byteOffset" : 954076
        },
        {
            "buffer" : 0,
            "byteLength" : 24528,
            "byteOffset" : 978604
        },
        {
            "buffer" : 0,
            "byteLength" : 4308,
            "byteOffset" : 1003132
        }
    ],
    "buffers" : [
        {
            "byteLength" : 1007440,
            "uri" : "data:application/octet-stream;base64,"
        }
    ]
}
