{
    "asset" : {
        "generator" : "Khronos glTF Blender I/O v1.1.45",
        "version" : "2.0"
    },
    "scene" : 0,
    "scenes" : [
        {
            "name" : "Scene",
            "nodes" : [
                0,
                1,
                2
            ]
        }
    ],
    "nodes" : [
        {
            "name" : "Lamp",
            "rotation" : [
                0.5232754349708557,
                0.3420339822769165,
                -0.7269423604011536,
                0.2841661274433136
            ],
            "translation" : [
                0,
                1.600000262260437,
                0
            ]
        },
        {
            "name" : "Camera",
            "rotation" : [
                0.8937963247299194,
                0.09062855690717697,
                -0.3857799172401428,
                0.20997287333011627
            ],
            "translation" : [
                7.481131553649902,
                5.343664646148682,
                6.507641792297363
            ]
        },
        {
            "extras" : {
                "currentUVSet" : "UVChannel_1",
                "mr displacement use global settings" : 1,
                "mr displacement view dependent" : 1,
                "mr displacement method" : 6,
                "mr displacement smoothing on" : 1,
                "mr displacement edge length" : 2,
                "mr displacement max displace" : 20,
                "mr displacement parametric subdivision level" : 5,
                "MapChannel:1" : "UVChannel_1",
                "MaxHandle" : 297
            },
            "mesh" : 0,
            "name" : "Hood1",
            "rotation" : [
                0,
                -0.409965842962265,
                0,
                0.9121008515357971
            ],
            "scale" : [
                0.009999999776482582,
                0.009999999776482582,
                0.009999999776482582
            ],
            "translation" : [
                0,
                0.8718690276145935,
                -5.908740043640137
            ]
        }
    ],
    "meshes" : [
        {
            "name" : "Mesh.396",
            "primitives" : [
                {
                    "attributes" : {
                        "POSITION" : 0,
                        "NORMAL" : 1,
                        "TEXCOORD_0" : 2
                    },
                    "indices" : 3
                }
            ]
        }
    ],
    "accessors" : [
        {
            "bufferView" : 0,
            "componentType" : 5126,
            "count" : 1373,
            "max" : [
                87.54729461669922,
                15.141679763793945,
                75.6634292602539
            ],
            "min" : [
                -87.54729461669922,
                -15.228636741638184,
                -75.58807373046875
            ],
            "type" : "VEC3"
        },
        {
            "bufferView" : 1,
            "componentType" : 5126,
            "count" : 1373,
            "type" : "VEC3"
        },
        {
            "bufferView" : 2,
            "componentType" : 5126,
            "count" : 1373,
            "type" : "VEC2"
        },
        {
            "bufferView" : 3,
            "componentType" : 5123,
            "count" : 2292,
            "type" : "SCALAR"
        }
    ],
    "bufferViews" : [
        {
            "buffer" : 0,
            "byteLength" : 16476,
            "byteOffset" : 0
        },
        {
            "buffer" : 0,
            "byteLength" : 16476,
            "byteOffset" : 16476
        },
        {
            "buffer" : 0,
            "byteLength" : 10984,
            "byteOffset" : 32952
        },
        {
            "buffer" : 0,
            "byteLength" : 4584,
            "byteOffset" : 43936
        }
    ],
    "buffers" : [
        {
            "byteLength" : 48520,
            "uri" : "data:application/octet-stream;base64,"
        }
    ]
}
